<svg width="130" height="68" viewBox="0 0 130 68" fill="none" xmlns="http://www.w3.org/2000/svg">
<path d="M114.997 1.14287C115.242 0.716966 115.47 0 115.47 0C115.47 0 115.815 1.29691 116.445 1.75817C116.945 2.12451 117.961 2.2102 117.961 2.2102C117.961 2.2102 118.001 3.98655 118.565 4.86635C118.926 5.42987 119.776 6.05308 119.776 6.05308L118.928 10.8603L121.859 7.01002C121.859 7.01002 122.366 7.18482 124.03 7.12004C125.694 7.05525 126.418 5.90995 126.418 5.90995C126.418 5.90995 127.489 6.49937 128.046 6.57C128.914 6.68001 130 6.12997 130 6.12997C130 6.12997 128.929 8.97543 128.572 10.174C128.373 10.8391 128.209 11.2122 127.938 11.8504C127.583 12.6856 127.392 13.1309 126.857 13.8608C126.162 14.809 125.75 15.363 124.811 16.0628C123.858 16.7737 123.209 17.0324 122.083 17.3991L116.603 18.5262L116.593 18.5281C115.958 18.6468 115.568 18.7197 115.037 19.1089C114.478 19.5187 114.477 19.6501 113.94 20.5328C113.662 20.9905 113.077 23.165 111.981 24.9413C110.962 26.5913 109.484 27.6915 108.181 27.8676C106.879 28.0438 98.6289 27.8676 98.6289 27.8676L98.629 23.0582L107.639 23.0711C108.833 22.974 109.486 22.4414 110.352 21.641C111.841 20.2664 113.113 18.2646 113.084 17.5386C113.038 16.3899 112.679 16.0055 112.245 14.7661C112.245 14.7661 111.837 14.0073 111.555 11.8257C111.273 9.64401 111.438 8.22011 111.512 7.64846C111.585 7.07681 111.927 5.87171 112.493 4.96047C113.059 4.04923 113.992 2.71582 113.992 2.71582C113.992 2.71582 114.752 1.56878 114.997 1.14287Z" fill="#DBF38B"/>
<path d="M5.30595 46.1727H0V6.12997H5.30595V46.1727Z" fill="#DBF38B"/>
<path d="M17.6888 46.1727H12.6651V21.003C12.6651 16.8843 13.9634 13.3758 16.5599 10.4775C19.1941 7.57913 22.5809 6.12997 26.7202 6.12997H39.6464V46.1727H34.3405V11.1639H26.7202C23.9732 11.1639 21.7718 11.9838 20.116 13.6237C18.4979 15.2635 17.6888 17.8758 17.6888 21.4606V26.323C19.7962 24.0729 22.8066 22.9479 26.7202 22.9479H31.8569V27.9819H26.7202C24.5377 27.9819 22.7502 28.2488 21.3579 28.7827C20.0031 29.3166 18.7801 30.2319 17.6888 31.5285V46.1727Z" fill="#DBF38B"/>
<path d="M47.2892 46.1727V20.1449C47.2892 15.5305 48.3993 11.9457 50.6195 9.39059C52.8774 6.83548 56.076 5.55793 60.2154 5.55793C64.3924 5.55793 67.591 6.5876 69.8112 8.64694C72.0691 10.7063 73.198 13.6046 73.198 17.3419C73.198 19.7445 72.6335 21.7085 71.5046 23.2339C70.3757 24.7594 68.4565 25.9607 65.7471 26.8378V27.0666C68.5694 28.1726 70.451 29.7552 71.3917 31.8145C72.3701 33.8357 72.8593 37.1917 72.8593 41.8824V46.1727H67.5534V38.8506C67.5534 35.9523 66.7443 33.7023 65.1262 32.1006C63.5081 30.4607 61.1749 29.6408 58.1269 29.6408H55.0788V24.6068H58.2962C61.9087 24.6068 64.4112 23.8632 65.8035 22.3759C67.1959 20.8886 67.8921 19.1153 67.8921 17.0559C67.8921 15.111 67.1959 13.5474 65.8035 12.3652C64.4488 11.183 62.6426 10.5919 60.3847 10.5919C57.7882 10.5919 55.8314 11.3355 54.5143 12.8228C53.2348 14.3101 52.5951 16.7508 52.5951 20.1449V46.1727H47.2892Z" fill="#DBF38B"/>
<path d="M84.4432 46.1727H79.4194V21.003C79.4194 16.8843 80.7177 13.3758 83.3142 10.4775C85.9484 7.57913 89.3352 6.12997 93.4746 6.12997H106.401V46.1727H101.095V11.1639H93.4746C90.7275 11.1639 88.5261 11.9838 86.8703 13.6237C85.2522 15.2635 84.4432 17.8758 84.4432 21.4606V26.323C86.5505 24.0729 89.561 22.9479 93.4746 22.9479H98.6112V27.9819H93.4746C91.292 27.9819 89.5045 28.2488 88.1122 28.7827C86.7575 29.3166 85.5345 30.2319 84.4432 31.5285V46.1727Z" fill="#DBF38B"/>
<path d="M43.6929 50.3425C44.5543 50.3425 45.3116 50.5185 45.9646 50.8705C46.6177 51.2084 47.1318 51.652 47.5069 52.2011V50.5326H50.4456V62.3183C50.4456 63.4026 50.2302 64.3671 49.7995 65.212C49.3688 66.0709 48.7227 66.7468 47.8612 67.2396C46.9998 67.7465 45.9577 68 44.735 68C43.0954 68 41.7477 67.6128 40.6917 66.8383C39.6496 66.0639 39.0591 65.0078 38.9201 63.6701H41.8171C41.97 64.2052 42.2965 64.6276 42.7967 64.9374C43.3108 65.2612 43.9291 65.4232 44.6516 65.4232C45.4992 65.4232 46.1869 65.1627 46.7149 64.6417C47.2429 64.1348 47.5069 63.3603 47.5069 62.3183V60.5019C47.1318 61.051 46.6107 61.5087 45.9438 61.8748C45.2907 62.2409 44.5404 62.4239 43.6929 62.4239C42.7203 62.4239 41.831 62.1705 41.0251 61.6636C40.2193 61.1566 39.5801 60.4456 39.1077 59.5303C38.6492 58.601 38.4199 57.5378 38.4199 56.341C38.4199 55.1582 38.6492 54.1091 39.1077 53.1939C39.5801 52.2786 40.2123 51.5745 41.0043 51.0817C41.8102 50.5889 42.7064 50.3425 43.6929 50.3425ZM47.5069 56.3832C47.5069 55.6651 47.368 55.0525 47.0901 54.5456C46.8122 54.0246 46.437 53.6304 45.9646 53.3628C45.4922 53.0812 44.9851 52.9404 44.4432 52.9404C43.9013 52.9404 43.4011 53.0742 42.9426 53.3417C42.4841 53.6092 42.1089 54.0035 41.8171 54.5245C41.5392 55.0314 41.4003 55.6369 41.4003 56.341C41.4003 57.045 41.5392 57.6646 41.8171 58.1996C42.1089 58.7206 42.4841 59.1219 42.9426 59.4036C43.415 59.6852 43.9152 59.826 44.4432 59.826C44.9851 59.826 45.4922 59.6922 45.9646 59.4247C46.437 59.1431 46.8122 58.7488 47.0901 58.2419C47.368 57.7209 47.5069 57.1013 47.5069 56.3832Z" fill="white"/>
<path d="M51.503 56.341C51.503 55.1582 51.7322 54.1091 52.1908 53.1939C52.6632 52.2786 53.2954 51.5745 54.0873 51.0817C54.8932 50.5889 55.7894 50.3425 56.7759 50.3425C57.6374 50.3425 58.3877 50.5185 59.0268 50.8705C59.6799 51.2225 60.2009 51.6661 60.59 52.2011V50.5326H63.5286V62.2338H60.59V60.523C60.2148 61.0722 59.6938 61.5298 59.0268 61.8959C58.3738 62.2479 57.6165 62.4239 56.7551 62.4239C55.7825 62.4239 54.8932 62.1705 54.0873 61.6636C53.2954 61.1566 52.6632 60.4456 52.1908 59.5303C51.7322 58.601 51.503 57.5378 51.503 56.341ZM60.59 56.3832C60.59 55.6651 60.451 55.0525 60.1731 54.5456C59.8952 54.0246 59.5201 53.6304 59.0477 53.3628C58.5753 53.0812 58.0681 52.9404 57.5262 52.9404C56.9843 52.9404 56.4841 53.0742 56.0256 53.3417C55.5671 53.6092 55.192 54.0035 54.9002 54.5245C54.6223 55.0314 54.4833 55.6369 54.4833 56.341C54.4833 57.045 54.6223 57.6646 54.9002 58.1996C55.192 58.7206 55.5671 59.1219 56.0256 59.4036C56.498 59.6852 56.9982 59.826 57.5262 59.826C58.0681 59.826 58.5753 59.6922 59.0477 59.4247C59.5201 59.1431 59.8952 58.7488 60.1731 58.2419C60.451 57.7209 60.59 57.1013 60.59 56.3832Z" fill="white"/>
<path d="M79.6754 50.3636C81.0926 50.3636 82.232 50.8071 83.0934 51.6942C83.9688 52.5673 84.4065 53.7923 84.4065 55.3694V62.2338H81.4886V55.7707C81.4886 54.8554 81.2594 54.1584 80.8009 53.6796C80.3423 53.1868 79.7171 52.9404 78.9251 52.9404C78.1331 52.9404 77.5009 53.1868 77.0285 53.6796C76.57 54.1584 76.3407 54.8554 76.3407 55.7707V62.2338H73.4229V55.7707C73.4229 54.8554 73.1936 54.1584 72.7351 53.6796C72.2766 53.1868 71.6514 52.9404 70.8594 52.9404C70.0535 52.9404 69.4143 53.1868 68.9419 53.6796C68.4834 54.1584 68.2542 54.8554 68.2542 55.7707V62.2338H65.3363V50.5326H68.2542V51.9477C68.6293 51.4549 69.1087 51.0676 69.6922 50.786C70.2897 50.5044 70.9427 50.3636 71.6514 50.3636C72.5545 50.3636 73.3604 50.5607 74.069 50.955C74.7776 51.3352 75.3264 51.8843 75.7155 52.6025C76.0906 51.9266 76.6325 51.3845 77.3411 50.9761C78.0637 50.5678 78.8417 50.3636 79.6754 50.3636Z" fill="white"/>
<path d="M96.8667 56.1297C96.8667 56.5522 96.8389 56.9324 96.7833 57.2703H88.3425C88.4119 58.1152 88.7037 58.777 89.2178 59.2557C89.7319 59.7345 90.3641 59.9738 91.1144 59.9738C92.1982 59.9738 92.9693 59.5021 93.4278 58.5587H96.5749C96.2415 59.6852 95.6023 60.6145 94.6575 61.3467C93.7127 62.0649 92.5525 62.4239 91.1769 62.4239C90.0654 62.4239 89.065 62.1775 88.1757 61.6847C87.3004 61.1778 86.6126 60.4667 86.1124 59.5514C85.6261 58.6362 85.3829 57.5801 85.3829 56.3832C85.3829 55.1722 85.6261 54.1091 86.1124 53.1939C86.5987 52.2786 87.2795 51.5745 88.1549 51.0817C89.0302 50.5889 90.0376 50.3425 91.1769 50.3425C92.2746 50.3425 93.2542 50.5818 94.1156 51.0606C94.991 51.5393 95.6648 52.2223 96.1373 53.1094C96.6236 53.9824 96.8667 54.9892 96.8667 56.1297ZM93.8447 55.2849C93.8308 54.5245 93.5598 53.919 93.0318 53.4684C92.5039 53.0038 91.8578 52.7714 91.0936 52.7714C90.3711 52.7714 89.7597 52.9967 89.2595 53.4473C88.7732 53.8838 88.4745 54.4963 88.3633 55.2849H93.8447Z" fill="white"/>
<path d="M102.373 62.4239C101.428 62.4239 100.58 62.255 99.8301 61.917C99.0798 61.565 98.4824 61.0933 98.0378 60.5019C97.607 59.9105 97.3708 59.2557 97.3291 58.5376H100.268C100.323 58.9882 100.539 59.3613 100.914 59.657C101.303 59.9527 101.782 60.1006 102.352 60.1006C102.908 60.1006 103.338 59.9879 103.644 59.7626C103.964 59.5373 104.124 59.2487 104.124 58.8967C104.124 58.5165 103.929 58.2348 103.54 58.0518C103.165 57.8547 102.56 57.6434 101.727 57.4181C100.865 57.2069 100.157 56.9887 99.6009 56.7634C99.059 56.5381 98.5866 56.1931 98.1836 55.7284C97.7946 55.2638 97.6001 54.6372 97.6001 53.8486C97.6001 53.2009 97.7807 52.6095 98.142 52.0744C98.5171 51.5393 99.0451 51.1169 99.7259 50.8071C100.421 50.4973 101.233 50.3425 102.164 50.3425C103.54 50.3425 104.638 50.6945 105.457 51.3985C106.277 52.0885 106.729 53.0249 106.812 54.2077H104.019C103.978 53.743 103.783 53.3769 103.436 53.1094C103.102 52.8278 102.651 52.6869 102.081 52.6869C101.553 52.6869 101.143 52.7855 100.851 52.9826C100.573 53.1798 100.435 53.4544 100.435 53.8064C100.435 54.2006 100.629 54.5034 101.018 54.7146C101.407 54.9117 102.012 55.1159 102.831 55.3271C103.665 55.5383 104.353 55.7566 104.895 55.9819C105.437 56.2072 105.902 56.5592 106.291 57.038C106.694 57.5026 106.902 58.1222 106.916 58.8967C106.916 59.5725 106.729 60.178 106.354 60.7131C105.992 61.2482 105.464 61.6706 104.77 61.9804C104.089 62.2761 103.29 62.4239 102.373 62.4239Z" fill="white"/>
</svg>
